<mxfile host="app.diagrams.net" agent="Mozilla/5.0 (Windows NT 10.0; Win64; x64) AppleWebKit/537.36 (KHTML, like Gecko) Chrome/133.0.0.0 Safari/537.36" version="25.0.3">
  <diagram name="Pagina-1" id="c9ePInjW_9fQ667SR4dm">
    <mxGraphModel dx="1456" dy="642" grid="1" gridSize="10" guides="1" tooltips="1" connect="1" arrows="1" fold="1" page="1" pageScale="1" pageWidth="1390" pageHeight="980" math="0" shadow="0">
      <root>
        <mxCell id="0" />
        <mxCell id="1" parent="0" />
        <mxCell id="m7079UBTJg5BuVaduOHa-1" value="" style="rounded=0;whiteSpace=wrap;html=1;" vertex="1" parent="1">
          <mxGeometry x="285" y="60" width="420" height="340" as="geometry" />
        </mxCell>
        <mxCell id="m7079UBTJg5BuVaduOHa-2" value="&lt;font style=&quot;font-size: 24px;&quot;&gt;SLOT&lt;/font&gt;" style="text;html=1;align=center;verticalAlign=middle;whiteSpace=wrap;rounded=0;" vertex="1" parent="1">
          <mxGeometry x="290" y="350" width="100" height="50" as="geometry" />
        </mxCell>
        <mxCell id="m7079UBTJg5BuVaduOHa-6" style="edgeStyle=orthogonalEdgeStyle;rounded=0;orthogonalLoop=1;jettySize=auto;html=1;exitX=0.5;exitY=1;exitDx=0;exitDy=0;entryX=0.25;entryY=0;entryDx=0;entryDy=0;" edge="1" parent="1" source="m7079UBTJg5BuVaduOHa-3" target="m7079UBTJg5BuVaduOHa-5">
          <mxGeometry relative="1" as="geometry" />
        </mxCell>
        <mxCell id="m7079UBTJg5BuVaduOHa-3" value="NFC Module" style="rounded=0;whiteSpace=wrap;html=1;" vertex="1" parent="1">
          <mxGeometry x="310" y="100" width="120" height="60" as="geometry" />
        </mxCell>
        <mxCell id="m7079UBTJg5BuVaduOHa-7" style="edgeStyle=orthogonalEdgeStyle;rounded=0;orthogonalLoop=1;jettySize=auto;html=1;exitX=0.5;exitY=1;exitDx=0;exitDy=0;entryX=0.75;entryY=0;entryDx=0;entryDy=0;" edge="1" parent="1" source="m7079UBTJg5BuVaduOHa-4" target="m7079UBTJg5BuVaduOHa-5">
          <mxGeometry relative="1" as="geometry" />
        </mxCell>
        <mxCell id="m7079UBTJg5BuVaduOHa-4" value="Hall Effect Sensor" style="rounded=0;whiteSpace=wrap;html=1;" vertex="1" parent="1">
          <mxGeometry x="555" y="100" width="120" height="60" as="geometry" />
        </mxCell>
        <mxCell id="m7079UBTJg5BuVaduOHa-5" value="&lt;div&gt;&lt;span style=&quot;background-color: initial;&quot;&gt;ItsyBitsy MCU&lt;/span&gt;&lt;/div&gt;" style="rounded=0;whiteSpace=wrap;html=1;" vertex="1" parent="1">
          <mxGeometry x="435" y="210" width="120" height="60" as="geometry" />
        </mxCell>
        <mxCell id="m7079UBTJg5BuVaduOHa-11" value="I2C" style="text;html=1;align=center;verticalAlign=middle;whiteSpace=wrap;rounded=0;" vertex="1" parent="1">
          <mxGeometry x="380" y="160" width="60" height="30" as="geometry" />
        </mxCell>
        <mxCell id="m7079UBTJg5BuVaduOHa-12" value="Analoge Pin" style="text;html=1;align=center;verticalAlign=middle;whiteSpace=wrap;rounded=0;" vertex="1" parent="1">
          <mxGeometry x="530" y="160" width="70" height="30" as="geometry" />
        </mxCell>
        <mxCell id="m7079UBTJg5BuVaduOHa-13" value="Electro Magnetisch Slot" style="rounded=0;whiteSpace=wrap;html=1;" vertex="1" parent="1">
          <mxGeometry x="555" y="320" width="120" height="60" as="geometry" />
        </mxCell>
        <mxCell id="m7079UBTJg5BuVaduOHa-14" style="edgeStyle=orthogonalEdgeStyle;rounded=0;orthogonalLoop=1;jettySize=auto;html=1;exitX=0.5;exitY=0;exitDx=0;exitDy=0;entryX=0.85;entryY=0.988;entryDx=0;entryDy=0;entryPerimeter=0;" edge="1" parent="1" source="m7079UBTJg5BuVaduOHa-13" target="m7079UBTJg5BuVaduOHa-5">
          <mxGeometry relative="1" as="geometry" />
        </mxCell>
        <mxCell id="m7079UBTJg5BuVaduOHa-15" value="Digitale Pin" style="text;html=1;align=center;verticalAlign=middle;whiteSpace=wrap;rounded=0;" vertex="1" parent="1">
          <mxGeometry x="560" y="270" width="70" height="30" as="geometry" />
        </mxCell>
      </root>
    </mxGraphModel>
  </diagram>
</mxfile>
